<svg enable-background="new 0 0 275 62" height="62" viewBox="0 0 275 62" width="275" xmlns="http://www.w3.org/2000/svg" xmlns:xlink="http://www.w3.org/1999/xlink"><clipPath id="a"><path d="m83.663 30.928c0 14.494-11.79 26.283-26.285 26.283-14.492 0-26.28-11.791-26.28-26.283 0-14.491 11.79-26.28 26.28-26.28 14.495-.001 26.285 11.789 26.285 26.28z"/></clipPath><linearGradient id="b"><stop offset=".0056" stop-color="#6176b9"/><stop offset=".691" stop-color="#394a9f"/></linearGradient><linearGradient id="c" gradientTransform="matrix(1 0 0 -1 -1582 -2941)" gradientUnits="userSpaceOnUse" x1="1628.1709" x2="1632.5332" xlink:href="#b" y1="-2962.8423" y2="-2962.8423"/><linearGradient id="d" gradientTransform="matrix(1 0 0 -1 -1582 -2941)" gradientUnits="userSpaceOnUse" x1="1641.8945" x2="1645.8701" xlink:href="#b" y1="-2961.5132" y2="-2961.5132"/><circle cx="57.381" cy="31" fill="#de5833" r="26.05"/><ellipse cx="57.377" cy="31" fill="none" rx="29.25" ry="29.208" stroke="#de5833" stroke-miterlimit="10" stroke-width="2.25"/><g fill="#4c4c4c"><path d="m105.809 21.05h-6.551l-.142.025v18.268h6.692c6.346 0 9.185-4.69 9.185-9.34 0-4.312-2.873-8.953-9.184-8.953zm0 2.444c4.604 0 6.666 3.256 6.666 6.485 0 3.158-1.745 6.843-6.666 6.843h-4.174v-13.328z"/><path d="m127.088 33.32c0 2.287-1.583 3.968-3.763 3.988-2.323 0-3.711-1.428-3.711-3.812v-7.129h-2.39v7.156c0 3.662 2.225 6.022 5.665 6.022h.002c1.777-.022 3.22-.694 4.294-1.985l.091 1.778h2.204v-12.97h-2.39z"/><path d="m143.46 37.381-1.489-1.49-.104.104c-.811.836-1.95 1.291-3.209 1.291-2.182 0-4.382-1.367-4.382-4.431 0-2.61 1.812-4.434 4.406-4.434 1.164 0 2.297.452 3.11 1.245l.103.098 1.533-1.591-.103-.098c-1.312-1.289-2.894-1.943-4.697-1.943-4.052 0-6.77 2.7-6.77 6.723 0 4.641 3.399 6.717 6.77 6.717 1.879 0 3.504-.67 4.828-1.993l.103-.101z"/><path d="m155.725 26.698v-.33h-2.825l-5.011 5.138v-10.429h-2.368v18.269h2.368v-5.785l5.783 5.785h2.769v-.358l-6.515-6.491z"/><path d="m165.029 21.05h-6.549l-.146.025v18.268h6.688c6.349 0 9.188-4.69 9.188-9.34.007-4.312-2.868-8.953-9.181-8.953zm0 2.444c4.604 0 6.668 3.256 6.668 6.485 0 3.158-1.745 6.843-6.668 6.843h-4.172v-13.328z"/><path d="m186.309 33.32c0 2.287-1.582 3.968-3.766 3.988-2.32 0-3.71-1.428-3.71-3.812v-7.129h-2.39v7.156c0 3.662 2.226 6.022 5.664 6.022h.002c1.776-.022 3.219-.694 4.293-1.985l.093 1.778h2.205v-12.97h-2.392v6.952z"/><path d="m202.682 37.381-1.49-1.49-.1.104c-.812.836-1.951 1.291-3.211 1.291-2.181 0-4.382-1.367-4.382-4.431 0-2.61 1.812-4.434 4.403-4.434 1.164 0 2.298.452 3.113 1.245l.103.098 1.532-1.591-.104-.098c-1.312-1.289-2.892-1.943-4.696-1.943-4.052 0-6.771 2.7-6.771 6.723 0 4.641 3.403 6.717 6.771 6.717 1.879 0 3.504-.67 4.828-1.993l.104-.101z"/><path d="m214.945 26.698v-.33h-2.823l-5.013 5.138v-10.429h-2.365v18.269h2.365v-5.785l5.786 5.785h2.77v-.358l-6.519-6.491z"/><path d="m224.703 31.482h5.598v4.057c-1.349 1.143-2.994 1.747-4.764 1.747-4.869 0-7.049-3.478-7.049-6.922 0-3.508 2.189-7.282 7-7.282 1.896 0 3.895.792 5.217 2.065l.107.106 1.471-1.706-.094-.092c-1.793-1.767-4.172-2.739-6.703-2.739-2.76 0-5.123.907-6.83 2.622-1.73 1.739-2.678 4.235-2.662 7.025 0 4.297 2.492 9.313 9.518 9.313 2.801 0 5.113-1.015 7.066-3.104l.037-.039v-7.314h-7.912z"/><path d="m241.254 26.084c-3.893 0-6.719 2.859-6.719 6.797 0 3.878 2.826 6.692 6.719 6.692 3.906 0 6.744-2.814 6.744-6.692 0-4.003-2.775-6.797-6.744-6.797zm0 11.225c-2.508 0-4.328-1.855-4.328-4.428 0-2.699 1.791-4.583 4.354-4.583 2.522 0 4.354 1.927 4.354 4.582-.029 2.61-1.829 4.429-4.38 4.429z"/></g><g clip-path="url(#a)"><path d="m68.054 69.801c-.917-4.221-6.244-13.771-8.265-17.809-2.019-4.037-4.042-9.73-3.122-13.402.167-.668-1.749-5.759-1.198-6.119 4.285-2.795 5.415.307 7.13-.947.885-.646 2.083.531 2.39-.541 1.098-3.854-1.531-10.571-4.465-13.508-.959-.957-2.43-1.558-4.089-1.877-.638-.872-1.668-1.712-3.125-2.484-1.624-.864-5.154-2.005-6.984-2.309-1.269-.209-1.555.146-2.098.234.505.045 2.902 1.229 3.37 1.299-.467.315-1.837-.015-2.712.377-.44.2-.77.957-.767 1.314 2.5-.253 6.402-.008 8.708 1.018-1.834.209-4.624.442-5.823 1.072-3.487 1.838-5.027 6.129-4.109 11.27.919 5.13 4.959 23.856 6.245 30.109 1.286 6.246-2.754 10.281-5.324 11.383l2.754.186-.917 2.021c3.302.368 6.974-.73 6.974-.73-.733 2.021-5.692 2.756-5.692 2.756s2.39.729 6.243-.736c3.857-1.467 6.244-2.389 6.244-2.389l1.835 4.771 3.491-3.486 1.469 3.672c-.001-.003 2.755-.925 1.837-5.145z" fill="#d5d7d8"/><path d="m69.163 68.943c-.915-4.221-6.241-13.771-8.263-17.812-2.021-4.04-4.041-9.73-3.122-13.4.17-.668.174-3.396.728-3.758 4.283-2.8 3.979-.096 5.696-1.35.886-.646 1.595-1.429 1.904-2.501 1.103-3.855-1.531-10.571-4.468-13.509-.956-.958-2.427-1.559-4.086-1.876-.637-.875-1.665-1.712-3.123-2.485-2.745-1.458-6.148-2.041-9.301-1.469.504.046 1.658 1.089 2.123 1.157-.703.477-2.572.416-2.561 1.475 2.503-.25 5.247.145 7.554 1.17-1.834.208-3.542.661-4.741 1.294-3.491 1.834-4.408 5.506-3.491 10.65.92 5.142 4.961 23.868 6.242 30.112 1.287 6.239-2.751 10.277-5.321 11.381l2.754.186-.917 2.021c3.302.363 6.974-.733 6.974-.733-.732 2.021-5.691 2.754-5.691 2.754s2.386.733 6.242-.735c3.859-1.468 6.248-2.386 6.248-2.386l1.833 4.772 3.491-3.489 1.471 3.673c-.007-.001 2.745-.92 1.825-5.142z" fill="#fff"/><path d="m48.055 26.788c0-1.065.861-1.929 1.93-1.929 1.064 0 1.927.862 1.927 1.929 0 1.066-.863 1.928-1.927 1.928-1.068 0-1.93-.862-1.93-1.928z" fill="#2d4f8e"/><path d="m50.34 26.144c0-.277.225-.5.499-.5.277 0 .501.224.501.5s-.224.501-.501.501c-.274.001-.499-.223-.499-.501z" fill="#fff"/><path d="m61.217 25.644c0-.913.744-1.655 1.656-1.655.917 0 1.657.742 1.657 1.655 0 .917-.741 1.659-1.657 1.659-.912 0-1.656-.742-1.656-1.659z" fill="#2d4f8e"/><path d="m63.181 25.093c0-.235.193-.429.427-.429.243 0 .429.193.429.429 0 .239-.187.429-.429.429-.234-.001-.427-.191-.427-.429z" fill="#fff"/><path d="m50.533 21.2s-1.454-.657-2.867.23c-1.41.887-1.358 1.794-1.358 1.794s-.75-1.672 1.249-2.491c2.001-.818 2.976.467 2.976.467z" fill="url(#c)"/><path d="m63.87 21.067s-1.043-.597-1.855-.587c-1.664.021-2.12.758-2.12.758s.279-1.754 2.411-1.403c1.155.193 1.564 1.232 1.564 1.232z" fill="url(#d)"/></g><path d="m55.887 34.225c.193-1.166 3.208-3.374 5.342-3.508 2.139-.134 2.806-.104 4.588-.531 1.787-.428 6.383-1.572 7.656-2.16 1.275-.589 6.672.292 2.868 2.413-1.647.921-6.083 2.612-9.253 3.56-3.167.946-5.087-.906-6.14.651-.838 1.233-.171 2.933 3.614 3.285 5.11.476 10.01-2.304 10.55-.828.542 1.476-4.393 3.312-7.398 3.373-3 .057-9.051-1.981-9.957-2.615-.911-.633-2.122-2.104-1.87-3.64z" fill="#fdd20a"/><path d="m58.199 50.161s-7.179-3.829-7.297-2.276c-.121 1.557 0 7.898.837 8.377.838.479 6.821-3.109 6.821-3.109z" fill="#65bc46"/><path d="m60.951 49.921s4.906-3.712 5.985-3.472c1.075.244 1.315 7.898.356 8.262-.957.355-6.572-1.943-6.572-1.943z" fill="#65bc46"/><path d="m56.462 50.566c0 2.511-.361 3.59.718 3.828 1.075.236 3.108 0 3.828-.479.717-.478.118-3.708-.12-4.31-.241-.595-4.426-.115-4.426.961z" fill="#43a244"/><path d="m56.918 50.009c0 2.511-.359 3.589.718 3.828 1.073.241 3.108 0 3.828-.478.717-.479.119-3.705-.122-4.312-.239-.594-4.424-.113-4.424.962z" fill="#65bc46"/></svg>